# xmcd
#
# Track frame offsets: 
#        150
#        14179
#        24956
#        40748
#        52996
#        66381
#        78158
#        91263
#        106683
#        119563
#
# Disc length: 1731 seconds
#
# Revision: 0
# Processed by: cddbd v1.5.2PL0 Copyright (c) Steve Scherf et al.
# Submitted via: ExactAudioCopy v1.0b4
#
DISCID=7706c10a
DTITLE=Don Williams - You're My Best Friend * Harmony * Country Boy
DYEAR=2013
DGENRE=Country
TTITLE0=I'm Just A Country Boy
TTITLE1=Louisiana Saturday Night
TTITLE2=Overlookin' And Underthinkin'
TTITLE3=Sneakin' Around
TTITLE4=Look Around You
TTITLE5=I've Got A Winner In You
TTITLE6=Rake And Ramblin' Man
TTITLE7=Too Many Tears (To Make Love Strong)
TTITLE8=It's Gotta Be Magic
TTITLE9=Falling In Love
EXTD=
EXTT0=
EXTT1=
EXTT2=
EXTT3=
EXTT4=
EXTT5=
EXTT6=
EXTT7=
EXTT8=
EXTT9=
PLAYORDER=
